<?xml version="1.0" encoding="iso-8859-1"?>
<!-- Generator: Adobe Illustrator 16.0.0, SVG Export Plug-In . SVG Version: 6.00 Build 0)  -->
<!DOCTYPE svg PUBLIC "-//W3C//DTD SVG 1.1//EN" "http://www.w3.org/Graphics/SVG/1.1/DTD/svg11.dtd">
<svg version="1.1" id="Capa_1" xmlns="http://www.w3.org/2000/svg" xmlns:xlink="http://www.w3.org/1999/xlink" x="0px" y="0px"
	 width="500.043px" height="500.043px" viewBox="0 0 500.043 500.043" style="enable-background:new 0 0 500.043 500.043;"
	 xml:space="preserve">
<g>
	<g>
		<path d="M491.445,206.857c-4.752,0-8.605,4.857-8.605,10.834c0,16.582,0,48.1,0,64.672c0,5.977,3.854,10.824,8.615,10.824
			c4.752,0,8.588-4.848,8.588-10.824c0-16.562,0-48.081,0-64.682C500.043,211.714,496.197,206.857,491.445,206.857z"/>
		<path d="M8.616,206.857c-4.752,0-8.616,4.857-8.616,10.834c0,16.601,0,48.071,0.01,64.653c0,5.977,3.854,10.824,8.606,10.844
			c4.753,0,8.597-4.848,8.597-10.824c0-16.572,0-48.081,0.01-64.682C17.222,211.714,13.369,206.857,8.616,206.857z"/>
		<path d="M114.568,108.812c-15.854,0-28.716,14.544-28.716,32.474c0,54.354,0.01,163.137,0.02,217.471
			c0,17.93,12.842,32.473,28.697,32.473s28.716-14.553,28.716-32.473c0-21.316,0-51.045,0-82.545c16.553,0,164.713,0,208.874,0
			c0,31.51,0,61.229,0,82.555c0,17.92,12.861,32.463,28.717,32.463c15.854,0,28.697-14.553,28.697-32.473
			c0-54.354,0-163.137,0-217.471c0-17.939-12.844-32.474-28.697-32.474c-15.855,0-28.717,14.525-28.717,32.474
			c0,21.315,0,51.035,0,82.543c-44.178,0-192.321,0-208.874,0c0-31.508,0-61.229,0-82.553
			C143.285,123.338,130.433,108.812,114.568,108.812z"/>
		<path d="M447.602,152.188c-0.938,0-1.865,0-2.811,0c-11.945,0-21.641,9.668-21.641,21.63c0,37.647,0,114.76,0,152.406
			c0,11.953,9.695,21.65,21.648,21.65c0.938,0,1.885,0,2.812,0c11.953,0,21.648-9.668,21.648-21.631
			c0-37.637,0-114.759-0.008-152.407C469.26,161.875,459.555,152.188,447.602,152.188z"/>
		<path d="M52.116,152.188c-0.937,0-1.884,0-2.821,0c-11.953,0-21.64,9.668-21.64,21.63c0,37.647,0,114.76,0,152.406
			c0,11.963,9.687,21.65,21.64,21.65c0.937,0,1.884,0,2.811,0c11.953,0,21.64-9.668,21.64-21.631c0-37.637,0-114.759,0-152.407
			C73.756,161.875,64.069,152.188,52.116,152.188z"/>
	</g>
</g>
<g>
</g>
<g>
</g>
<g>
</g>
<g>
</g>
<g>
</g>
<g>
</g>
<g>
</g>
<g>
</g>
<g>
</g>
<g>
</g>
<g>
</g>
<g>
</g>
<g>
</g>
<g>
</g>
<g>
</g>
</svg>
