<svg xmlns="http://www.w3.org/2000/svg" width="512" height="512" viewBox="0 0 512 512">
  <defs>
    <style>
      .cls-1 {
        stroke: #000;
        stroke-width: 1px;
      }

      .cls-1, .cls-2 {
        fill-rule: evenodd;
      }
    </style>
  </defs>
  <path id="모양_1" data-name="모양 1" class="cls-1" d="M56.8,191.453V442.047s-0.876,18.984,18.4,18.984H438.564S454.2,458.643,454.2,444.9V191.453H56.8ZM454.2,153.484H56.8V108.871S54.988,88.938,75.2,88.938H97.273v37.969h36.8V88.938H376.93v37.969h36.8V88.938H440.4s13.8,1.6,13.8,19.933v44.613ZM413.727,50.969V13h-36.8V50.969H134.07V13h-36.8V50.969H75.2S20,53.5,20,109.82V441.1S19.745,499,77.035,499h357.85S491,496.324,491,441.1V108.871s-0.358-57.9-56.115-57.9H413.727Z"/>
  <path id="모양_2" data-name="모양 2" class="cls-2" d="M162.588,304.41L137.75,330.988l93.832,92.074L375.09,256.949,348.412,232.27,229.742,369.906Z"/>
</svg>
