<svg id="_3단계" data-name="3단계" xmlns="http://www.w3.org/2000/svg" width="500" height="500" viewBox="0 0 500 500">
  <defs>
    <style>
      .cls-1 {
        fill: #b9d539;
      }

      .cls-1, .cls-2, .cls-3, .cls-4, .cls-5, .cls-6, .cls-7 {
        fill-rule: evenodd;
      }

      .cls-2 {
        fill: #dfcbb8;
      }

      .cls-3 {
        fill: #956027;
      }

      .cls-4 {
        fill: #654b2d;
      }

      .cls-5 {
        fill: #ddd4c9;
      }

      .cls-7 {
        fill: #f2858d;
      }
    </style>
  </defs>
  <path id="모양_11" data-name="모양 11" class="cls-1" d="M246.024,82.6c-0.049-.035-2-19.968,11.429-27.952,3.98-2.366,9.192-6.694,18-4.5,1.283,0.32,23.178,5.243,27.9-8.1,2.934-8.289,3.206-23.248-17.1-34.2-4.384-2.364-12.967-5.723-31.339,1.6-21.589,8.6-21.376,22.39-21.761,21.8-9.5-14.458-21.61-24.75-42.3-22.5,0,0-34.378,11.427-20.7,46.8,0,0,14.869,12.1,26.1-2.7,0,0,14.973-15.51,31.5,12.6,0,0,7.092,9.935,4.5,15.3l2.7,38.7h11.7Z"/>
  <path id="모양_13" data-name="모양 13" class="cls-2" d="M251.153,39.344s-1.288-7.466,18-11.7c0,0,21.71-1.277,24.3,4.5,0,0,1.214,3.3-2.7,1.8,0,0-24.2-7.587-36.9,4.5C253.853,38.444,251.436,40.845,251.153,39.344Z"/>
  <path id="모양_12" data-name="모양 12" class="cls-2" d="M187.253,28.544a34.885,34.885,0,0,1,33.3,10.8s10.645,9.44,12.6,18c0,0-.351,4.072-2.7-0.9,0,0-6.058-14.876-20.7-22.5,0,0-7.93-4.968-20.7-3.6C189.053,30.344,185.465,31.531,187.253,28.544Z"/>
  <path id="모양_1" data-name="모양 1" class="cls-3" d="M240.353,119.444s-20.964-38.166-40.5-25.2c-27.37,18.165-36.43,33.481-42.3,39.6,0,0-90.669,107.931-45,174.6,0,0,241.708-.653,275.4-8.1,0,0,54.372-41.957-62.1-162.9,0,0-34.793-44.615-48.6-52.2,0,0-12.153,6.172-17.1,11.7C254.132,103.672,241.788,114.008,240.353,119.444Z"/>
  <path id="모양_2" data-name="모양 2" class="cls-4" d="M36.7,306.034s0.319,38.311,5.67,47.25c0,0,20.834,7.135,26.46,5.67,0,0,27.528,114.03,32.13,121.9,0,0,34.719,14.689,75.6,14.175l169.155-.945s36.233-9.722,51.975-20.79c0,0,33.8-92.618,35.91-120.015,0,0,17.921-2.054,21.735-4.725,0,0,10.1-42.705,7.56-50.085,0,0-93.925-2.642-160.65,3.78,0,0-189.84,7.8-217.35,3.78C84.891,306.034,44.151,303.632,36.7,306.034Z"/>
  <path id="모양_4" data-name="모양 4" class="cls-5" d="M272.753,113.144s-4.023-2.849-2.7,1.8,9.8,22.475,16.123,69.185c0,0,1.638,1.245,2.835-.945C289.011,183.184,285.93,141,272.753,113.144Z"/>
  <path id="모양_5" data-name="모양 5" class="cls-5" d="M194.511,238.939s-5.6,43.577-1.89,53.865c0,0,2,1.971,2.835-1.89,0,0-1.1-38.352,1.89-51.03C197.346,239.884,197.726,236.679,194.511,238.939Z"/>
  <path id="모양_6" data-name="모양 6" class="cls-5" d="M298.461,242.719s7.45,28.943,6.615,52.92c0,0-2.129,3.956-2.835-.945,0,0-.593-29.334-5.67-49.14C296.571,245.554,294.814,241.342,298.461,242.719Z"/>
  <path id="모양_3" data-name="모양 3" class="cls-5" d="M216.053,114.044s-14.584,47.169-13.037,70.085c0,0,1.52,2.252,2.835,0,0,0,1.017-34.679,13.8-69.185C219.653,114.944,219.237,110.935,216.053,114.044Z"/>
  <path id="눈" class="cls-6" d="M193.566,203.029s-7.878,3.523-4.725,14.175a10.515,10.515,0,0,0,11.34,5.67s9.891-1,9.45-12.285C209.631,210.589,207.346,197.35,193.566,203.029Z"/>
  <path id="오른눈" class="cls-6" d="M289.956,201.139s-11.177,5.554-4.823,15.907c0.032,0.053.065,0.105,0.1,0.158,0,0,4.2,5.887,13.23,2.835,0,0,6.992-2.139,5.67-11.34C304.131,208.7,302.152,198.5,289.956,201.139Z"/>
  <path id="모양_9" data-name="모양 9" class="cls-5" d="M120.8,358.954s-3.752,2.25.945,2.835c0,0,36.522,2.385,44.415,1.89,0,0,90.119.217,92.61,0,0,0,51.714.082,57.645-.945,0,0,65.716-.772,78.435-4.725,0,0,3.684-1.226,0-2.835,0,0-36.822,4.2-39.69,3.78,0,0-36.627,1.047-43.47.945,0,0-44.7,1.569-51.975.945h-92.61S126.474,359.98,120.8,358.954Z"/>
  <path id="입" class="cls-7" d="M236.091,260.674s-5.859-.308-1.89,4.725l13.23,17.955s3.842,3.25,6.615-.945l7.56-21.735s1.985-4.124-3.78-2.835C257.826,257.839,243.471,260.283,236.091,260.674Z"/>
</svg>
