<svg id="_7단계" data-name="7단계" xmlns="http://www.w3.org/2000/svg" width="500" height="500" viewBox="0 0 500 500">
  <defs>
    <style>
      .cls-1 {
        fill: #b9d538;
      }

      .cls-1, .cls-2, .cls-3, .cls-4, .cls-5, .cls-6, .cls-7, .cls-8 {
        fill-rule: evenodd;
      }

      .cls-2 {
        fill: #ffe700;
      }

      .cls-4 {
        fill: #956228;
      }

      .cls-5 {
        fill: #f2858d;
      }

      .cls-6 {
        fill: #654b2d;
      }

      .cls-7 {
        fill: #ddd4c9;
        stroke: #ddd4c9;
        stroke-width: 4px;
      }

      .cls-8 {
        fill: #e9bb9d;
      }
    </style>
  </defs>
  <path id="모양_21" data-name="모양 21" class="cls-1" d="M216.461,326.91V306.66s-0.675.02-1.5-1.5c0,0-27.579,15.242-60.75,12,0,0-33.49-10.593-36.75-33,0,0-5.376-34.307,26.25-30,0,0,33.522,10.081,67.5,35.25,0,0,4.34.548,4.5-6.75,0,0-.008-34.469.75-49.5,0,0-3.936-2.219-4.5-3.75,0,0-23.472,9.1-36.75-4.5,0,0-21.148-14.465-28.5-36.75,0,0-10.024-26.4,0-41.25,0,0,4.985-8.994,23.25,2.25,0,0,18.76,6.408,44.25,49.5,0,0,3.507,8.1,5.25-14.25,0,0,1.55-51.345,16.5-35.25,0,0,4.372,2.755,6,36.75,0,0,1.151,60.951.75,63,0,0,21.625-36.95,57-51.75,0,0,17.286-8.886,32.25,5.25,0,0,12.948,10.055.75,28.5,0,0-17.852,31.1-57.75,47.25a75.5,75.5,0,0,1-30.75,6.75,11.117,11.117,0,0,0-3,3v33.75l3,4.5-6,6.75-21-1.5Z"/>
  <path id="모양_23" data-name="모양 23" class="cls-2" d="M202.961,59.91s-46.095-41.54-66.75,12.75c0,0-8.852,31.934,19.5,37.5,0,0,13.457,4.693,33,2.25,0,0-33.566,28.642-11.25,57.75,0,0,17.524,22.5,41.25-.75,0,0,11.574-9.655,12-27.75,0,0,9.351,31.114,31.5,33,0,0,35.948,4.174,39-19.5,0,0,9.634-21.455-22.5-45.75,0,0,34.858-2.045,44.25-44.25,0,0,10.992-41.587-35.25-31.5,0,0-19.6,7.031-26.25,27.75,0,0,10.969-32.907-11.25-51,0,0-29.473-27.326-48.75,15.75C201.461,26.16,195.668,45.96,202.961,59.91Z"/>
  <path id="오른눈" class="cls-3" d="M246.442,82.806s-5.961,2.962-2.573,8.484l0.053,0.084s2.238,3.139,7.056,1.512c0,0,3.729-1.141,3.024-6.048C254,86.838,252.946,81.4,246.442,82.806Z"/>
  <path id="눈" class="cls-3" d="M214.114,82.854s-4.2,1.879-2.52,7.56a5.608,5.608,0,0,0,6.048,3.024s5.275-.536,5.04-6.552C222.682,86.886,221.463,79.825,214.114,82.854Z"/>
  <path id="모양_20" data-name="모양 20" class="cls-4" d="M180.461,341.91s21.049-30.261,46.5-12.75c0,0,6.7,2.662,12-1.5,0,0,28.969-11.164,50.25,9.75C271.131,344.668,179.183,342.423,180.461,341.91Z"/>
  <path id="입" class="cls-5" d="M225.379,102.771s-3.857-.649-1.611,2.986l7.4,12.9s2.3,2.444,4.453-.124l6.656-13.822s1.628-2.581-2.288-2.165C239.99,102.542,230.3,103.072,225.379,102.771Z"/>
  <path id="모양_2" data-name="모양 2" class="cls-6" d="M72.247,340.652s0.265,31.926,4.725,39.375c0,0,17.361,5.946,22.05,4.725,0,0,22.941,95.025,26.775,101.588,0,0,28.932,12.241,63,11.812l140.963-.787s30.195-8.1,43.312-17.325c0,0,28.169-77.182,29.925-100.013,0,0,14.935-1.711,18.113-3.937,0,0,8.414-35.588,6.3-41.738,0,0-78.271-2.2-133.875,3.15,0,0-158.2,6.5-181.125,3.15C112.409,340.652,78.459,338.65,72.247,340.652Z"/>
  <path id="모양_9" data-name="모양 9" class="cls-7" d="M142.334,384.752s-3.127,1.875.788,2.363c0,0,30.435,1.987,37.012,1.575,0,0,75.1.18,77.175,0,0,0,43.095.068,48.037-.788,0,0,54.764-.644,65.363-3.937,0,0,3.07-1.022,0-2.363,0,0-30.685,3.5-33.075,3.15,0,0-30.522.873-36.225,0.788,0,0-37.254,1.307-43.312.787H180.921S147.061,385.607,142.334,384.752Z"/>
  <path id="모양_25_복사" data-name="모양 25 복사" class="cls-8" d="M202.211,206.91s-32.572-36.775-37.5-36.75c0,0-.75.758,1.5,2.25C166.211,172.41,198.445,203.288,202.211,206.91Z"/>
  <path id="모양_27_복사" data-name="모양 27 복사" class="cls-8" d="M200.711,296.16s-41.345-3.837-57-12c0,0-4.455-2.107-3,.75a40.256,40.256,0,0,0,12,5.25s11.6,4.132,34.5,6.75C187.211,296.91,195.736,297.755,200.711,296.16Z"/>
  <path id="모양_26_복사" data-name="모양 26 복사" class="cls-8" d="M259.211,262.41s10.658,1.18,38.25-35.25c0,0,2.188-.724,1.5,1.5,0,0-9.969,13.2-15,18,0,0-10.707,11.484-16.5,14.25,0,0-4.432,3.026-6.75,3C260.711,263.91,257.309,264.414,259.211,262.41Z"/>
</svg>
