<svg id="_4단계" data-name="4단계" xmlns="http://www.w3.org/2000/svg" width="500" height="500" viewBox="0 0 500 500">
  <defs>
    <style>
      .cls-1 {
        fill: #b9d539;
      }

      .cls-1, .cls-2, .cls-3, .cls-4, .cls-5, .cls-6, .cls-7 {
        fill-rule: evenodd;
      }

      .cls-2 {
        fill: #dfcbb8;
      }

      .cls-3 {
        fill: #956027;
      }

      .cls-4 {
        fill: #ddd4c9;
      }

      .cls-5 {
        fill: #654b2d;
      }

      .cls-7 {
        fill: #f2858d;
      }
    </style>
  </defs>
  <path id="모양_15" data-name="모양 15" class="cls-1" d="M247.553,67.469s-52.786-82.042-113.4-29.7c0,0-25.161,40.158,27,58.5,0,0,44.7,11.361,54.9,9.9,0,0,8.557,7.106,6.3,31.5l3.6,38.7,14.4,10.8h18.9s-2.854-32.2-4.5-49.5c0,0-4.194-31.5,2.7-31.5,14.705,0,39.539-5.019,56.7-11.7,0,0,72.655-11.716,48.6-65.7,0,0-31.05-50.9-92.7,8.1C270.053,36.869,254.112,54.2,247.553,67.469Z"/>
  <path id="모양_13" data-name="모양 13" class="cls-2" d="M262.853,85.469s3.924-7.44,25.2-20.7c0,0,11.607-8.069,40.5-22.5,0,0,5.823-1.362,2.7,3.6,0,0-33.853,10.688-65.7,40.5C265.553,86.369,263.136,86.97,262.853,85.469Z"/>
  <path id="모양_12" data-name="모양 12" class="cls-2" d="M153.053,59.369s51.615-13.68,70.2,13.5c0,0,10.645,9.44,12.6,18,0,0-.351,4.072-2.7-0.9,0,0-6.058-14.876-20.7-22.5,0,0-14.638-13.883-58.5-5.4C153.953,62.069,151.265,62.356,153.053,59.369Z"/>
  <path id="모양_1" data-name="모양 1" class="cls-3" d="M222.353,174.569s-21.816-16.485-43.2-26.1c-30.734-13.82-41.83,1.081-47.7,7.2,0,0-64.569,82.731-18.9,149.4,0,0,241.708-.653,275.4-8.1,0,0,52.615-40.124-35.1-144.9,0,0-6.33-11.169-13.5-14.4-20.444-9.213-21.664-2.782-29.7-2.7,0,0-40.053,26.872-45,32.4C258.632,174.1,227.341,171.583,222.353,174.569Z"/>
  <path id="모양_5" data-name="모양 5" class="cls-4" d="M193.611,273.364s-5.6,43.577-1.89,53.865c0,0,2,1.972,2.835-1.89,0,0-1.1-38.352,1.89-51.03C196.446,274.309,196.826,271.1,193.611,273.364Z"/>
  <path id="모양_6" data-name="모양 6" class="cls-4" d="M297.561,277.144s7.45,28.943,6.615,52.92c0,0-2.129,3.956-2.835-.945,0,0-.593-29.334-5.67-49.14C295.671,279.979,293.914,275.767,297.561,277.144Z"/>
  <path id="모양_2" data-name="모양 2" class="cls-5" d="M36.7,302.659s0.319,38.311,5.67,47.25c0,0,20.834,7.135,26.46,5.67,0,0,27.528,114.03,32.13,121.9,0,0,34.719,14.689,75.6,14.175l169.155-.945s36.233-9.722,51.975-20.79c0,0,33.8-92.618,35.91-120.015,0,0,17.921-2.054,21.735-4.725,0,0,10.1-42.705,7.56-50.085,0,0-93.925-2.642-160.65,3.78,0,0-189.84,7.8-217.35,3.78C84.891,302.659,44.151,300.257,36.7,302.659Z"/>
  <path id="모양_14" data-name="모양 14" class="cls-6" d="M300.653,233.969s-19.322,13.416-13.5,15.3c0,0,14,7.9,18.9,3.6,0,0,1.009-3.312-13.5-5.4,0,0,5.565-5.923,10.8-11.7C303.353,235.769,303.085,232.535,300.653,233.969Z"/>
  <path id="모양_3" data-name="모양 3" class="cls-4" d="M208.853,177.269s-9.111,27.114-6.737,41.285c0,0,1.52,2.252,2.835,0,0,0-2.488-6.492,6.6-40.385C211.553,178.169,212.037,174.159,208.853,177.269Z"/>
  <path id="모양_7" data-name="모양 7" class="cls-6" d="M192.666,237.454s-7.878,3.523-4.725,14.175a10.516,10.516,0,0,0,11.34,5.67s9.891-1,9.45-12.285C208.731,245.014,206.446,231.775,192.666,237.454Z"/>
  <path id="모양_9" data-name="모양 9" class="cls-4" d="M120.8,355.579s-3.752,2.25.945,2.835c0,0,36.522,2.385,44.415,1.89,0,0,90.119.217,92.61,0,0,0,51.714.082,57.645-.945,0,0,65.716-.773,78.435-4.725,0,0,3.684-1.226,0-2.835,0,0-36.822,4.2-39.69,3.78,0,0-36.627,1.047-43.47.945,0,0-44.7,1.569-51.975.945h-92.61S126.473,356.605,120.8,355.579Z"/>
  <path id="모양_10" data-name="모양 10" class="cls-7" d="M240.211,286.64s-5.772,1.054-2.478-4.445l8.02-3.226s7.514-3.806,10.8,0l8.964,4.412s2.5,3.837-3.387,3.294C262.13,286.675,247.581,286.085,240.211,286.64Z"/>
  <path id="모양_4" data-name="모양 4" class="cls-4" d="M280.853,176.369s-4.023-3.749-2.7.9-0.007-4.339,7.123,41.285c0,0,1.638,1.245,2.835-.945C288.111,217.609,288.309,207.878,280.853,176.369Z"/>
</svg>
