<svg id="_1단계" data-name="1단계" xmlns="http://www.w3.org/2000/svg" width="500" height="500" viewBox="0 0 500 500">
  <defs>
    <style>
      .cls-1 {
        fill: #956027;
      }

      .cls-1, .cls-2, .cls-3, .cls-4, .cls-5 {
        fill-rule: evenodd;
      }

      .cls-2 {
        fill: #654b2d;
      }

      .cls-3 {
        fill: #ddd4c9;
      }

      .cls-5 {
        fill: #f2858d;
      }
    </style>
  </defs>
  <path id="모양_1" data-name="모양 1" class="cls-1" d="M236.856,29.55s-70.9,87.283-79.8,91.2c0,0-99.92,117.829-51.3,187.15,0,0,259.68-1.063,293.55-8.55,0,0,42.988-60.817-74.1-182.4,0,0-63.6-58.817-69.35-73.15C255.856,43.8,239.044,21.263,236.856,29.55Z"/>
  <path id="모양_2" data-name="모양 2" class="cls-2" d="M36.406,306s0.32,38.514,5.7,47.5c0,0,20.944,7.172,26.6,5.7,0,0,27.674,114.633,32.3,122.55,0,0,34.9,14.767,76,14.25l163.4-.95s44.741-7.768,58.9-20.9c0,0,33.981-93.109,36.1-120.65,0,0,18.016-2.065,21.85-4.75,0,0,10.151-42.931,7.6-50.35,0,0-94.422-2.656-161.5,3.8,0,0-190.844,7.842-218.5,3.8C84.856,306,43.9,303.585,36.406,306Z"/>
  <path id="모양_4" data-name="모양 4" class="cls-3" d="M269.156,102.7s-4.18-3.724-2.85.95,13.733,33.935,20.9,79.8c0,0,1.647,1.251,2.85-.95C290.056,182.5,282.4,130.7,269.156,102.7Z"/>
  <path id="모양_5" data-name="모양 5" class="cls-3" d="M195.056,238.55s-5.627,43.807-1.9,54.15c0,0,2.016,1.982,2.85-1.9,0,0-1.11-38.555,1.9-51.3C197.906,239.5,198.288,236.278,195.056,238.55Z"/>
  <path id="모양_6" data-name="모양 6" class="cls-3" d="M299.556,242.35s7.489,29.1,6.65,53.2c0,0-2.14,3.977-2.85-.95,0,0-.6-29.49-5.7-49.4C297.656,245.2,295.89,240.966,299.556,242.35Z"/>
  <path id="모양_3" data-name="모양 3" class="cls-3" d="M226.406,84.65s-25.186,84.553-22.8,98.8c0,0,1.529,2.264,2.85,0,0,0,8.514-64.1,23.75-97.85C230.206,85.6,229.607,81.524,226.406,84.65Z"/>
  <path id="모양_7" data-name="모양 7" class="cls-4" d="M194.106,202.45s-7.919,3.541-4.75,14.25a10.572,10.572,0,0,0,11.4,5.7s9.944-1.011,9.5-12.35C210.256,210.05,207.959,196.74,194.106,202.45Z"/>
  <path id="모양_8" data-name="모양 8" class="cls-4" d="M291.006,200.55s-11.236,5.583-4.848,15.991c0.032,0.053.065,0.106,0.1,0.159,0,0,4.219,5.918,13.3,2.85,0,0,7.03-2.151,5.7-11.4C305.256,208.15,303.267,197.894,291.006,200.55Z"/>
  <path id="모양_9" data-name="모양 9" class="cls-3" d="M120.956,359.2s-3.772,2.262.95,2.85c0,0,36.716,2.4,44.65,1.9,0,0,90.6.218,93.1,0,0,0,51.988.083,57.95-.95,0,0,66.065-.777,78.85-4.75,0,0,3.7-1.232,0-2.85,0,0-37.016,4.218-39.9,3.8,0,0-36.82,1.053-43.7.95,0,0-44.941,1.577-52.25.95h-93.1S126.659,360.232,120.956,359.2Z"/>
  <path id="모양_10" data-name="모양 10" class="cls-5" d="M236.856,260.4s-5.89-.31-1.9,4.75l13.3,18.05s3.863,3.267,6.65-.95l7.6-21.85s2-4.146-3.8-2.85C258.706,257.55,244.276,260.007,236.856,260.4Z"/>
</svg>
