<svg id="_2단계" data-name="2단계" xmlns="http://www.w3.org/2000/svg" width="500" height="500" viewBox="0 0 500 500">
  <defs>
    <style>
      .cls-1 {
        fill: #b9d539;
      }

      .cls-1, .cls-2, .cls-3, .cls-4, .cls-5, .cls-6, .cls-7 {
        fill-rule: evenodd;
      }

      .cls-2 {
        fill: #dfcbb8;
      }

      .cls-3 {
        fill: #956027;
      }

      .cls-4 {
        fill: #654b2d;
      }

      .cls-5 {
        fill: #ddd4c9;
      }

      .cls-7 {
        fill: #f2858d;
      }
    </style>
  </defs>
  <path id="모양_11" data-name="모양 11" class="cls-1" d="M241.872,80.819s-1.684-76.555-51.3-71.1c0,0-34.378,11.427-20.7,46.8,0,0,12.169,10.3,23.4-4.5,0,0,20.373-13.709,36.9,14.4,0,0,3.492,9.935.9,15.3v11.7l13.5-2.7Z"/>
  <path id="모양_12" data-name="모양 12" class="cls-2" d="M186.972,29.519a34.885,34.885,0,0,1,33.3,10.8s10.645,9.44,12.6,18c0,0-.351,4.072-2.7-0.9,0,0-6.058-14.876-20.7-22.5,0,0-7.931-4.968-20.7-3.6C188.772,31.319,185.184,32.506,186.972,29.519Z"/>
  <path id="모양_1" data-name="모양 1" class="cls-3" d="M236.472,93.419s-4.765-33.665-24.3-20.7c-27.37,18.165-49.873,43.9-55.742,50.015,0,0-99.4,117.209-51.03,186.165,0,0,258.313-1.057,292.005-8.5,0,0,42.761-60.5-73.71-181.44,0,0-46.416-42.25-60.223-49.835,0,0-6.753-6.428-11.7-.9C245.751,74.947,237.907,87.983,236.472,93.419Z"/>
  <path id="모양_2" data-name="모양 2" class="cls-4" d="M36.415,307.009s0.319,38.311,5.67,47.25c0,0,20.834,7.135,26.46,5.67,0,0,27.528,114.03,32.13,121.905,0,0,34.719,14.689,75.6,14.175l169.155-.945s36.233-9.722,51.975-20.79c0,0,33.8-92.618,35.91-120.015,0,0,17.92-2.054,21.735-4.725,0,0,10.1-42.7,7.56-50.085,0,0-93.926-2.642-160.65,3.78,0,0-189.84,7.8-217.35,3.78C84.61,307.009,43.87,304.607,36.415,307.009Z"/>
  <path id="모양_4" data-name="모양 4" class="cls-5" d="M267.94,104.779s-4.159-3.7-2.835.945,13.66,33.756,20.79,79.38c0,0,1.638,1.245,2.835-.945C288.73,184.159,281.117,132.634,267.94,104.779Z"/>
  <path id="모양_5" data-name="모양 5" class="cls-5" d="M194.23,239.914s-5.6,43.577-1.89,53.865c0,0,2,1.971,2.834-1.89,0,0-1.1-38.352,1.891-51.03C197.065,240.859,197.445,237.654,194.23,239.914Z"/>
  <path id="모양_6" data-name="모양 6" class="cls-5" d="M298.18,243.694s7.449,28.943,6.615,52.92c0,0-2.129,3.956-2.835-.945,0,0-.593-29.334-5.671-49.14C296.289,246.529,294.532,242.317,298.18,243.694Z"/>
  <path id="모양_3" data-name="모양 3" class="cls-5" d="M225.415,86.824s-25.054,84.108-22.68,98.28c0,0,1.52,2.252,2.835,0,0,0,8.469-63.762,23.625-97.335C229.2,87.769,228.6,83.715,225.415,86.824Z"/>
  <path id="모양_7" data-name="모양 7" class="cls-6" d="M193.285,204s-7.878,3.523-4.725,14.175a10.515,10.515,0,0,0,11.339,5.67s9.892-1,9.45-12.285C209.349,211.564,207.065,198.325,193.285,204Z"/>
  <path id="모양_8" data-name="모양 8" class="cls-6" d="M289.675,202.114s-11.177,5.554-4.823,15.907c0.032,0.053.064,0.105,0.1,0.158,0,0,4.2,5.887,13.23,2.835,0,0,6.992-2.139,5.67-11.34C303.85,209.674,301.87,199.472,289.675,202.114Z"/>
  <path id="모양_9" data-name="모양 9" class="cls-5" d="M120.52,359.929s-3.753,2.25.945,2.835c0,0,36.522,2.385,44.415,1.89,0,0,90.119.217,92.61,0,0,0,51.713.082,57.645-.945,0,0,65.716-.772,78.435-4.725,0,0,3.684-1.226,0-2.835,0,0-36.822,4.2-39.69,3.78,0,0-36.627,1.047-43.47.945,0,0-44.706,1.569-51.975.945h-92.61S126.192,360.955,120.52,359.929Z"/>
  <path id="모양_10" data-name="모양 10" class="cls-7" d="M235.81,261.649s-5.859-.308-1.89,4.725l13.23,17.955s3.842,3.25,6.615-.945l7.56-21.735s1.985-4.124-3.781-2.835C257.544,258.814,243.19,261.258,235.81,261.649Z"/>
</svg>
