<svg id="_5단계" data-name="5단계" xmlns="http://www.w3.org/2000/svg" width="500" height="500" viewBox="0 0 500 500">
  <defs>
    <style>
      .cls-1 {
        fill: #b9d539;
      }

      .cls-1, .cls-2, .cls-3, .cls-4, .cls-5, .cls-6, .cls-7 {
        fill-rule: evenodd;
      }

      .cls-2 {
        fill: #956027;
      }

      .cls-3 {
        fill: #dfcbb8;
      }

      .cls-4 {
        fill: #654b2d;
      }

      .cls-6 {
        fill: #f2858d;
      }

      .cls-7 {
        fill: #ddd4c9;
      }
    </style>
  </defs>
  <path id="모양_16" data-name="모양 16" class="cls-1" d="M238.065,265.666s7.245-45.291-3.48-73.95c0,0-28.176-14.779-38.28-11.31,0,0-45.479,23.223-71.34,3.48,0,0-26.63-21.074-6.96-46.98,0,0,31.444-20.233,66.12,14.79,0,0,5.108,3.235,14.79,12.18,0,0,22.194,10.932,33.06,18.27,0,0,.4-21.9-5.22-38.28,0,0-5.012-15.684-11.31-26.1,0,0-40.959-4.823-52.2-36.54,0,0-12.108-36.591-1.74-66.99,0,0,3.563-20.219,23.49-7.83,0,0,56.6,28.732,53.94,70.47,0,0,1.939,20.075-.87,24.36,0,0,10.347,30.244,9.57,38.28,0,0,14.225-11.088,25.23-31.32,0,0,15.789-30.97,56.55-32.19,0,0,53.8,9.139,13.92,53.94,0,0-19.666,14.308-51.33,8.7,0,0-20.326-4.615-38.28,19.14,0,0,12.9,58.9,9.57,98.31l0.87,39.15-33.93-7.83Z"/>
  <path id="모양_1" data-name="모양 1" class="cls-2" d="M344.205,231.736c53.94,18.5,46.98,73.08,46.98,73.08-155.169,43.007-282.75,8.7-282.75,8.7,2.392-55.525,69.6-76.56,69.6-76.56,5.674-5.915,34.67,12.741,64.38,26.1,20.671,9.3,65.25-28.71,65.25-28.71C319.138,227.631,344.205,231.736,344.205,231.736Z"/>
  <path id="모양_17" data-name="모양 17" class="cls-3" d="M177.165,169.1s-25.764-16.878-40.02-19.14c0,0-2.594,1.808.87,3.48,0,0,18.041,4.543,33.93,15.66C171.945,169.1,177.805,173.49,177.165,169.1Z"/>
  <path id="모양_19" data-name="모양 19" class="cls-3" d="M332.9,99.5s-20.935-4.206-44.37,20.01c0,0-1.3,4.833,2.61,1.74,0,0,18.119-21.035,41.76-19.14C332.9,102.106,336.377,100.655,332.9,99.5Z"/>
  <path id="모양_18" data-name="모양 18" class="cls-3" d="M184.125,30.766s11.543,3.324,26.97,53.94c0,0-.956,3.059-2.61.87,0,0-13.335-43.23-23.49-50.46C185,35.116,182.164,32.82,184.125,30.766Z"/>
  <path id="모양_2" data-name="모양 2" class="cls-4" d="M43.806,312.927s0.308,37.034,5.481,45.675c0,0,20.139,6.9,25.578,5.481,0,0,26.611,110.229,31.059,117.841,0,0,33.562,14.2,73.08,13.7l163.516-.914s35.026-9.4,50.243-20.1c0,0,32.675-89.531,34.713-116.014,0,0,17.323-1.986,21.01-4.568,0,0,9.761-41.281,7.308-48.415,0,0-90.794-2.554-155.295,3.654,0,0-183.511,7.541-210.1,3.654C90.395,312.927,51.013,310.605,43.806,312.927Z"/>
  <path id="모양_14" data-name="모양 14" class="cls-5" d="M298.965,273.5s-18.678,12.969-13.05,14.79c0,0,13.531,7.641,18.27,3.48,0,0,.974-3.2-13.05-5.22,0,0,5.379-5.726,10.44-11.31C301.575,275.236,301.316,272.11,298.965,273.5Z"/>
  <path id="모양_14_복사" data-name="모양 14 복사" class="cls-5" d="M204.317,276s20.389,10.067,15.092,12.7c0,0-12.254,9.556-17.555,6.141,0,0-1.437-3.022,12.135-7.091,0,0-6.166-4.868-12-9.644C201.993,278.1,201.787,274.974,204.317,276Z"/>
  <path id="모양_10" data-name="모양 10" class="cls-6" d="M241.407,301.791s-5.579,1.019-2.4-4.3l7.754-3.118s7.263-3.679,10.44,0l8.664,4.265s2.413,3.709-3.274,3.184C262.6,301.825,248.531,301.255,241.407,301.791Z"/>
  <path id="모양_3" data-name="모양 3" class="cls-7" d="M205.005,250.876s-3.588,1.85-1.293,15.549c0,0,1.47,2.177,2.74,0a91.053,91.053,0,0,1,.293-14.679S207.64,249.109,205.005,250.876Z"/>
  <path id="모양_4" data-name="모양 4" class="cls-7" d="M292.005,256.966s-2.235-3.322-2.61,0c-0.44,3.893-.221,4.755.8,10.329,0,0,1.584,1.2,2.74-.913C292.93,266.382,293.755,264.231,292.005,256.966Z"/>
  <path id="모양_9" data-name="모양 9" class="cls-7" d="M125.107,364.083s-3.627,2.174.914,2.74c0,0,35.3,2.306,42.934,1.827,0,0,87.116.209,89.523,0,0,0,49.991.08,55.724-.913,0,0,63.526-.747,75.82-4.568,0,0,3.562-1.185,0-2.74,0,0-35.594,4.056-38.367,3.654,0,0-35.4,1.012-42.021.913,0,0-43.215,1.517-50.242.914H169.869S130.591,365.075,125.107,364.083Z"/>
</svg>
