<svg id="_6단계" data-name="6단계" xmlns="http://www.w3.org/2000/svg" width="500" height="500" viewBox="0 0 500 500">
  <defs>
    <style>
      .cls-1 {
        fill: #b9d538;
      }

      .cls-1, .cls-2, .cls-3, .cls-4, .cls-5, .cls-6, .cls-7, .cls-8 {
        fill-rule: evenodd;
      }

      .cls-2 {
        fill: #ffe700;
      }

      .cls-3 {
        fill: #e9bb9d;
      }

      .cls-4 {
        fill: #956228;
      }

      .cls-6 {
        fill: #f2858d;
      }

      .cls-7 {
        fill: #654b2d;
      }

      .cls-8 {
        fill: #ddd4c9;
      }
    </style>
  </defs>
  <path id="모양_21" data-name="모양 21" class="cls-1" d="M213.331,305.85V283.71s-0.738.021-1.64-1.64c0,0-30.154,16.664-66.42,13.12,0,0-36.616-11.583-40.18-36.08,0,0-5.878-37.509,28.7-32.8,0,0,36.65,11.021,73.8,38.54,0,0,4.744.6,4.92-7.38,0,0-.009-37.686.82-54.12,0,0-4.3-2.426-4.92-4.1,0,0-25.663,9.951-40.18-4.92,0,0-23.122-15.815-31.16-40.18,0,0-10.96-28.864,0-45.1,0,0,5.45-9.834,25.42,2.46,0,0,20.511,7,48.38,54.12,0,0,3.834,8.851,5.74-15.58,0,0,1.694-56.138,18.04-38.54,0,0,4.78,3.011,6.56,40.18,0,0,1.259,66.64.82,68.88,0,0,23.643-40.4,62.32-56.58,0,0,18.9-9.716,35.26,5.74,0,0,14.157,10.993.82,31.16,0,0-19.519,34-63.14,51.66,0,0-13.832,7.113-33.62,7.38a12.149,12.149,0,0,0-3.28,3.28v36.9l3.28,4.92-6.56,7.38-22.96-1.64Z"/>
  <path id="모양_24" data-name="모양 24" class="cls-1" d="M192.831,173.01"/>
  <path id="모양_22" data-name="모양 22" class="cls-2" d="M227.271,39.35s-30.421-43.2-63.14-15.58c0,0-22.729,23.667-4.1,46.74,0,0,19.111,33.808,42.64,41.82,0,0,18.124,6.738,24.6,14.76,0,0,33.452-32.5,44.28-36.9,0,0,42.417-34,23.78-68.06,0,0-12.878-29.962-48.38-5.74C246.951,16.39,241.185,20.1,227.271,39.35Z"/>
  <path id="모양_25" data-name="모양 25" class="cls-3" d="M193.651,174.65s-35.612-40.208-41-40.18c0,0-.821.829,1.64,2.46C154.291,136.93,189.533,170.69,193.651,174.65Z"/>
  <path id="모양_26" data-name="모양 26" class="cls-3" d="M263.351,231.23s11.653,1.29,41.82-38.54c0,0,2.392-.792,1.64,1.64,0,0-10.9,14.432-16.4,19.68,0,0-11.707,12.555-18.04,15.58,0,0-4.846,3.308-7.38,3.28C264.991,232.87,261.271,233.421,263.351,231.23Z"/>
  <path id="모양_27" data-name="모양 27" class="cls-3" d="M192.011,272.23s-45.2-4.195-62.32-13.12c0,0-4.871-2.3-3.28.82,0,0,6.469,4.331,13.12,5.74,0,0,12.677,4.517,37.72,7.38C177.251,273.05,186.572,273.974,192.011,272.23Z"/>
  <path id="모양_20" data-name="모양 20" class="cls-4" d="M173.971,322.25s23.013-33.086,50.84-13.94c0,0,7.322,2.91,13.12-1.64,0,0,31.673-12.206,54.94,10.66C273.1,325.265,172.573,322.811,173.971,322.25Z"/>
  <path id="눈" class="cls-5" d="M238.644,62.795s-4.593,2.054-2.755,8.266a6.133,6.133,0,0,0,6.613,3.306s5.767-.586,5.51-7.164C248.012,67.2,246.68,59.483,238.644,62.795Z"/>
  <path id="오른눈" class="cls-5" d="M212.49,62.742s-6.518,3.238-2.813,9.275l0.057,0.092s2.448,3.433,7.715,1.653c0,0,4.077-1.247,3.306-6.612C220.755,67.151,219.6,61.2,212.49,62.742Z"/>
  <path id="입" class="cls-6" d="M218.981,82.111s-4.217-.709-1.761,3.265l8.091,14.1s2.513,2.672,4.869-.136l7.278-15.112s1.78-2.822-2.5-2.367C234.955,81.861,224.358,82.44,218.981,82.111Z"/>
  <path id="모양_2" data-name="모양 2" class="cls-7" d="M55.656,320.874s0.29,34.906,5.166,43.05c0,0,18.982,6.5,24.108,5.166,0,0,25.082,103.894,29.274,111.069,0,0,31.633,13.384,68.88,12.915l154.119-.861s33.013-8.858,47.355-18.942c0,0,30.8-84.385,32.718-109.347,0,0,16.328-1.871,19.8-4.3,0,0,9.2-38.909,6.888-45.633,0,0-85.576-2.407-146.37,3.444,0,0-172.965,7.108-198.03,3.444C99.567,320.874,62.449,318.686,55.656,320.874Z"/>
  <path id="모양_9" data-name="모양 9" class="cls-8" d="M132.285,369.09s-3.418,2.05.861,2.583c0,0,33.276,2.173,40.467,1.722,0,0,82.109.2,84.378,0,0,0,47.117.075,52.521-.861,0,0,59.875-.7,71.463-4.305,0,0,3.357-1.117,0-2.583,0,0-33.548,3.823-36.162,3.444,0,0-33.371.954-39.606,0.861,0,0-40.731,1.43-47.355.861H174.474S137.454,370.025,132.285,369.09Z"/>
</svg>
